# xmcd CD database file
#
# Track frame offsets:
#	150
#	14344
#	28598
#	43670
#	57721
#	74075
#	88026
#	101686
#	116090
#	130025
#	143974
#	164362
#	178252
#	193589
#	207003
#	220743
#	239922
#	256404
#	269971
#
# Disc length: 3742 seconds
#
# Revision: 0
# Processed by: cddbd v1.5.2PL0 Copyright (c) Steve Scherf et al.
# Submitted via: CDex 1.70beta2
#
DISCID=330e9c13
DTITLE=Jack Teagarden - Giants of Jazz 2
DYEAR=1900
DGENRE=Jazz
TTITLE0=Someday, Sweetheart-Joe Venuti-Eddie Lang and Their All-Star Orchestra
TTITLE1=I Gotta Right to Sing the Blues-Benny Goodman and His Orchestra 
TTITLE2=Texas Tea Party-Benny Goodman and His Orchestra
TTITLE3=A Hundred Years from Today-Jack Teagarden with orhestral Accompaniment
TTITLE4=Moon Glow-Benny Goodman and His Orchestra
TTITLE5=Lord, I Give You My Children-Johnny Mercer
TTITLE6=Stars Fell on Alabama-Jack Teagarden with Orchestral Accompaniment
TTITLE7=I Hope Gabriel Likes My Music - Frankie Trumbauer and His Orchestra
TTITLE8=I'm an Old Cowhand - Frankie Trumbauer and His Orchestra
TTITLE9=Diane - Jackson Teagarden and His Trombone 
TTITLE10=Serenade to a Shylock - Jam Session at Commodore No 2
TTITLE11=Downhearted Blues - Teddy Grace
TTITLE12=The Blues - All Star Band
TTITLE13=Jack Hits the Road - Bud Freeman and His Famous Orchestra
TTITLE14=After Awhile - Bud Freeman and His Famous Orchestra
TTITLE15=Big Eight Blues - Jack Teagarden’s Big Eight
TTITLE16=St James Infirmary-Louis Armstrong and His All Stars
TTITLE17=Jack Armstrong Blues - Louis Armstrong and His All Stars
TTITLE18=Lover - LaVere’s Chicago Loopers
EXTD=
EXTT0=
EXTT1=
EXTT2=
EXTT3=
EXTT4=
EXTT5=
EXTT6=
EXTT7=
EXTT8=
EXTT9=
EXTT10=
EXTT11=
EXTT12=
EXTT13=
EXTT14=
EXTT15=
EXTT16=
EXTT17=
EXTT18=
PLAYORDER=
